<svg id="Layer_1" data-name="Layer 1" xmlns="http://www.w3.org/2000/svg" viewBox="0 0 174.2 36.2"><defs><style>.cls-1{fill:#231f20;}.cls-2{fill:#f8a330;}.cls-3{fill:#fff;}</style></defs><title>LogoNew</title><g id="Group_144" data-name="Group 144"><path id="Path_7783" data-name="Path 7783" class="cls-1" d="M54.39,28.27H52a1.13,1.13,0,0,0,0,2.25h.24v1.22h1.94V30.53h.24a1.13,1.13,0,0,0,0-2.25Z" transform="translate(-11 -28.27)"/><path id="Path_7784" data-name="Path 7784" class="cls-2" d="M53.18,31.74H32a1.49,1.49,0,0,0,0,3h4.84a1.49,1.49,0,0,1,0,3H12.49a1.49,1.49,0,1,0,0,3H27a1.49,1.49,0,0,1,0,3H16.6a1.49,1.49,0,0,0,0,3H30.77a1.49,1.49,0,0,1,0,3H21.1a1.49,1.49,0,0,0,0,3h7.25a1.49,1.49,0,0,1,0,3H12.49A1.49,1.49,0,0,0,11,57h0a1.49,1.49,0,0,0,1.49,1.48H24.11A1.49,1.49,0,0,1,25.48,60h0A1.49,1.49,0,0,1,24,61.49h-.63l-.34,3H50.85v-3H83.34A30.17,30.17,0,0,0,53.18,31.74Z" transform="translate(-11 -28.27)"/><path id="Rectangle_18" data-name="Rectangle 18" class="cls-1" d="M15.59,61.49H84.07A1.49,1.49,0,0,1,85.56,63h0a1.49,1.49,0,0,1-1.49,1.49H15.59A1.49,1.49,0,0,1,14.11,63h0A1.49,1.49,0,0,1,15.59,61.49Z" transform="translate(-11 -28.27)"/><path id="Path_7785" data-name="Path 7785" class="cls-3" d="M79.82,58.52h0a.78.78,0,0,0,.77-.9A27.71,27.71,0,0,0,54,33.94a.78.78,0,0,0-.8.76s0,0,0,0h0a.78.78,0,0,0,.76.78A26.14,26.14,0,0,1,79,57.85.78.78,0,0,0,79.82,58.52Z" transform="translate(-11 -28.27)"/></g><path class="cls-1" d="M90.32,56.22V36.54H94V53H99v3.2Z" transform="translate(-11 -28.27)"/><path class="cls-1" d="M113.49,36.54V49.27a8,8,0,0,1-1.59,5.36,5.72,5.72,0,0,1-4.59,1.85,5.49,5.49,0,0,1-4.47-1.84,8.29,8.29,0,0,1-1.53-5.43V36.54h3.63V49.49q0,3.75,2.49,3.75a2,2,0,0,0,1.79-1,4.91,4.91,0,0,0,.63-2.72v-13Z" transform="translate(-11 -28.27)"/><path class="cls-1" d="M123.9,56.22l-3.74-16.75H120a27.25,27.25,0,0,1,.26,3.55v13.2h-3.39V36.54h5.63L125.87,52H126l3.34-15.46H135V56.22h-3.47V42.88a31.34,31.34,0,0,1,.19-3.39h-.11L127.9,56.22Z" transform="translate(-11 -28.27)"/><path class="cls-1" d="M147.45,50.79A5.9,5.9,0,0,1,146.06,55a5.28,5.28,0,0,1-4,1.47,8.83,8.83,0,0,1-4.37-1V51.86a7.57,7.57,0,0,0,4.05,1.44,2,2,0,0,0,1.58-.58,2.24,2.24,0,0,0,.53-1.57,2.87,2.87,0,0,0-.63-1.8,9.41,9.41,0,0,0-2.09-1.81,9.29,9.29,0,0,1-1.92-1.68,6,6,0,0,1-1-1.8,6.84,6.84,0,0,1-.36-2.31,5.58,5.58,0,0,1,1.41-4A5,5,0,0,1,143,36.26a8.26,8.26,0,0,1,4.35,1.27l-1.21,2.93a11.48,11.48,0,0,0-1.35-.67,3.88,3.88,0,0,0-1.51-.3,1.66,1.66,0,0,0-1.37.59,2.44,2.44,0,0,0-.48,1.59A2.75,2.75,0,0,0,142,43.4a8.45,8.45,0,0,0,2,1.68,8.31,8.31,0,0,1,2.68,2.64A6.13,6.13,0,0,1,147.45,50.79Z" transform="translate(-11 -28.27)"/><path class="cls-2" d="M158.74,56.22h-8.87V36.54h8.87V39.7h-5.21v4.68h4.83v3.18h-4.83V53h5.21Z" transform="translate(-11 -28.27)"/><path class="cls-2" d="M170.92,56.22l-1.13-5h-5.13l-1.13,5h-3.66l4.87-19.75h5l4.88,19.75ZM169.11,48l-1-4.58q-.09-.42-.42-2.09t-.4-2.24q-.18,1.16-.44,2.55T165.39,48Z" transform="translate(-11 -28.27)"/><path class="cls-2" d="M181.43,56.22h-3.65V39.76H174V36.54H185.2v3.22h-3.77Z" transform="translate(-11 -28.27)"/></svg>