<svg xmlns="http://www.w3.org/2000/svg" width="74.556" height="36.197" viewBox="0 0 74.556 36.197">
  <defs>
    <style>
      .cls-1 {
        fill: #333;
      }

      .cls-2 {
        fill: #f8a22f;
      }

      .cls-3 {
        fill: #fff;
      }
    </style>
  </defs>
  <g id="Group_144" data-name="Group 144" transform="translate(-80.63 -230.46)">
    <path id="Path_7783" data-name="Path 7783" class="cls-1" d="M211.35,230.46h-2.419a1.126,1.126,0,0,0,0,2.253h.238v1.216h1.942v-1.216h.238a1.126,1.126,0,0,0,0-2.253Z" transform="translate(-87.333)"/>
    <path id="Path_7784" data-name="Path 7784" class="cls-2" d="M122.811,241.53H101.592a1.488,1.488,0,0,0,0,2.976h4.843a1.488,1.488,0,0,1,0,2.976H82.118a1.488,1.488,0,1,0,0,2.976H96.629a1.488,1.488,0,0,1,0,2.976h-10.4a1.488,1.488,0,1,0,0,2.976H100.4a1.488,1.488,0,0,1,0,2.976H90.73a1.488,1.488,0,1,0,0,2.976h7.246a1.488,1.488,0,1,1,0,2.976H82.118a1.491,1.491,0,0,0-1.488,1.488h0a1.491,1.491,0,0,0,1.488,1.479H93.744a1.491,1.491,0,0,1,1.363,1.482h0a1.491,1.491,0,0,1-1.488,1.488h-.627l-.341,2.982h27.832v-2.976h32.488A30.166,30.166,0,0,0,122.811,241.53Z" transform="translate(0 -7.602)"/>
    <rect id="Rectangle_18" data-name="Rectangle 18" class="cls-1" width="71.451" height="2.976" rx="1.488" transform="translate(83.735 263.681)"/>
    <path id="Path_7785" data-name="Path 7785" class="cls-3" d="M241.9,273.12h0a.783.783,0,0,0,.774-.9,27.707,27.707,0,0,0-26.61-23.681.78.78,0,0,0-.8.783h0a.78.78,0,0,0,.761.78,26.144,26.144,0,0,1,25.1,22.35A.78.78,0,0,0,241.9,273.12Z" transform="translate(-92.452 -12.415)"/>
  </g>
</svg>
